<mxfile host="app.diagrams.net" modified="2020-11-21T14:43:53.282Z" agent="5.0 (Windows NT 10.0; Win64; x64) AppleWebKit/537.36 (KHTML, like Gecko) Chrome/86.0.4240.198 Safari/537.36" etag="z8rYBPMnX-wcnkxTz6ka" version="13.9.1" type="github">
  <diagram id="lZa72MPf-5I15FZCik3Q" name="Page-1">
    <mxGraphModel dx="434" dy="247" grid="1" gridSize="10" guides="1" tooltips="1" connect="1" arrows="1" fold="1" page="1" pageScale="1" pageWidth="827" pageHeight="1169" math="0" shadow="0">
      <root>
        <mxCell id="0" />
        <mxCell id="1" parent="0" />
        <mxCell id="-yk-q24he1_SxwczFhWE-3" value="" style="rounded=0;whiteSpace=wrap;html=1;direction=south;" parent="1" vertex="1">
          <mxGeometry x="355" y="165" width="10" height="10" as="geometry" />
        </mxCell>
        <mxCell id="-yk-q24he1_SxwczFhWE-5" value="" style="rhombus;whiteSpace=wrap;html=1;" parent="1" vertex="1">
          <mxGeometry x="413.75" y="90" width="22.5" height="20" as="geometry" />
        </mxCell>
        <mxCell id="-yk-q24he1_SxwczFhWE-14" value="" style="edgeStyle=orthogonalEdgeStyle;rounded=0;orthogonalLoop=1;jettySize=auto;html=1;" parent="1" source="-yk-q24he1_SxwczFhWE-9" target="-yk-q24he1_SxwczFhWE-13" edge="1">
          <mxGeometry relative="1" as="geometry" />
        </mxCell>
        <mxCell id="-yk-q24he1_SxwczFhWE-9" value="&lt;span&gt;Strom&lt;/span&gt;&lt;br&gt;&lt;span&gt;berechnen&lt;/span&gt;" style="rounded=1;whiteSpace=wrap;html=1;" parent="1" vertex="1">
          <mxGeometry x="365" y="140" width="120" height="60" as="geometry" />
        </mxCell>
        <mxCell id="-yk-q24he1_SxwczFhWE-11" value="" style="edgeStyle=orthogonalEdgeStyle;rounded=0;orthogonalLoop=1;jettySize=auto;html=1;entryX=0.5;entryY=0;entryDx=0;entryDy=0;" parent="1" source="-yk-q24he1_SxwczFhWE-10" target="-yk-q24he1_SxwczFhWE-5" edge="1">
          <mxGeometry relative="1" as="geometry">
            <mxPoint x="425" y="80" as="targetPoint" />
            <Array as="points" />
          </mxGeometry>
        </mxCell>
        <mxCell id="-yk-q24he1_SxwczFhWE-10" value="Start" style="text;html=1;strokeColor=none;fillColor=none;align=center;verticalAlign=middle;whiteSpace=wrap;rounded=0;" parent="1" vertex="1">
          <mxGeometry x="405" y="40" width="40" height="20" as="geometry" />
        </mxCell>
        <mxCell id="-yk-q24he1_SxwczFhWE-12" value="" style="endArrow=classic;html=1;entryX=0.5;entryY=0;entryDx=0;entryDy=0;" parent="1" target="-yk-q24he1_SxwczFhWE-9" edge="1">
          <mxGeometry width="50" height="50" relative="1" as="geometry">
            <mxPoint x="424.9" y="110" as="sourcePoint" />
            <mxPoint x="424.9" y="130" as="targetPoint" />
            <Array as="points">
              <mxPoint x="424.9" y="120" />
            </Array>
          </mxGeometry>
        </mxCell>
        <mxCell id="-yk-q24he1_SxwczFhWE-20" value="" style="edgeStyle=orthogonalEdgeStyle;rounded=0;orthogonalLoop=1;jettySize=auto;html=1;" parent="1" source="-yk-q24he1_SxwczFhWE-13" edge="1">
          <mxGeometry relative="1" as="geometry">
            <mxPoint x="425" y="350" as="targetPoint" />
          </mxGeometry>
        </mxCell>
        <mxCell id="-yk-q24he1_SxwczFhWE-13" value="Ladewunsch&lt;br&gt;prÃ¼fen" style="whiteSpace=wrap;html=1;rounded=1;" parent="1" vertex="1">
          <mxGeometry x="365" y="240" width="120" height="60" as="geometry" />
        </mxCell>
        <mxCell id="-yk-q24he1_SxwczFhWE-15" value="" style="rounded=0;whiteSpace=wrap;html=1;" parent="1" vertex="1">
          <mxGeometry x="355" y="265" width="10" height="10" as="geometry" />
        </mxCell>
        <mxCell id="-yk-q24he1_SxwczFhWE-16" value="" style="endArrow=classic;html=1;entryX=-0.151;entryY=0.499;entryDx=0;entryDy=0;entryPerimeter=0;exitX=0.481;exitY=0.926;exitDx=0;exitDy=0;exitPerimeter=0;" parent="1" source="-yk-q24he1_SxwczFhWE-3" target="-yk-q24he1_SxwczFhWE-15" edge="1">
          <mxGeometry width="50" height="50" relative="1" as="geometry">
            <mxPoint x="340" y="170" as="sourcePoint" />
            <mxPoint x="355" y="225" as="targetPoint" />
            <Array as="points">
              <mxPoint x="330" y="170" />
              <mxPoint x="330" y="220" />
              <mxPoint x="330" y="270" />
            </Array>
          </mxGeometry>
        </mxCell>
        <mxCell id="-yk-q24he1_SxwczFhWE-17" value="Lade-&lt;br&gt;wunsch" style="text;html=1;strokeColor=none;fillColor=none;align=center;verticalAlign=middle;whiteSpace=wrap;rounded=0;" parent="1" vertex="1">
          <mxGeometry x="290" y="230" width="40" height="20" as="geometry" />
        </mxCell>
        <mxCell id="-yk-q24he1_SxwczFhWE-18" value="gesteckt" style="text;html=1;strokeColor=none;fillColor=none;align=center;verticalAlign=middle;whiteSpace=wrap;rounded=0;" parent="1" vertex="1">
          <mxGeometry x="430" y="110" width="40" height="20" as="geometry" />
        </mxCell>
        <mxCell id="-yk-q24he1_SxwczFhWE-23" value="nach&lt;br&gt;Zahlungsmethode&lt;br&gt;fragen" style="rounded=1;whiteSpace=wrap;html=1;" parent="1" vertex="1">
          <mxGeometry x="287.5" y="390" width="120" height="60" as="geometry" />
        </mxCell>
        <mxCell id="-yk-q24he1_SxwczFhWE-24" value="Ladevorgang&amp;nbsp;&lt;br&gt;vorbereiten" style="rounded=1;whiteSpace=wrap;html=1;" parent="1" vertex="1">
          <mxGeometry x="445" y="430" width="120" height="60" as="geometry" />
        </mxCell>
        <mxCell id="-yk-q24he1_SxwczFhWE-25" value="Zahlungsmethode&lt;br&gt;bestimmen" style="rounded=1;whiteSpace=wrap;html=1;" parent="1" vertex="1">
          <mxGeometry x="287.5" y="470" width="120" height="60" as="geometry" />
        </mxCell>
        <mxCell id="-yk-q24he1_SxwczFhWE-26" value="" style="endArrow=none;html=1;strokeWidth=4;" parent="1" edge="1">
          <mxGeometry width="50" height="50" relative="1" as="geometry">
            <mxPoint x="355" y="560" as="sourcePoint" />
            <mxPoint x="475" y="560" as="targetPoint" />
          </mxGeometry>
        </mxCell>
        <mxCell id="-yk-q24he1_SxwczFhWE-27" value="" style="endArrow=none;html=1;strokeWidth=4;" parent="1" edge="1">
          <mxGeometry width="50" height="50" relative="1" as="geometry">
            <mxPoint x="365" y="350" as="sourcePoint" />
            <mxPoint x="485" y="350" as="targetPoint" />
          </mxGeometry>
        </mxCell>
        <mxCell id="-yk-q24he1_SxwczFhWE-35" value="" style="edgeStyle=orthogonalEdgeStyle;rounded=0;jumpStyle=none;jumpSize=20;orthogonalLoop=1;jettySize=auto;html=1;strokeWidth=1;" parent="1" source="-yk-q24he1_SxwczFhWE-28" target="-yk-q24he1_SxwczFhWE-34" edge="1">
          <mxGeometry relative="1" as="geometry" />
        </mxCell>
        <mxCell id="-yk-q24he1_SxwczFhWE-28" value="" style="rhombus;whiteSpace=wrap;html=1;" parent="1" vertex="1">
          <mxGeometry x="403.75" y="600" width="22.5" height="20" as="geometry" />
        </mxCell>
        <mxCell id="-yk-q24he1_SxwczFhWE-29" value="E-Auto&lt;br&gt;laden" style="whiteSpace=wrap;html=1;" parent="1" vertex="1">
          <mxGeometry x="355" y="660" width="120" height="60" as="geometry" />
        </mxCell>
        <mxCell id="-yk-q24he1_SxwczFhWE-31" value="" style="endArrow=classic;html=1;strokeWidth=1;entryX=0.5;entryY=0;entryDx=0;entryDy=0;exitX=0.5;exitY=1;exitDx=0;exitDy=0;" parent="1" source="-yk-q24he1_SxwczFhWE-28" target="-yk-q24he1_SxwczFhWE-29" edge="1">
          <mxGeometry width="50" height="50" relative="1" as="geometry">
            <mxPoint x="415" y="635" as="sourcePoint" />
            <mxPoint x="465" y="585" as="targetPoint" />
          </mxGeometry>
        </mxCell>
        <mxCell id="-yk-q24he1_SxwczFhWE-32" value="[OK]" style="text;html=1;strokeColor=none;fillColor=none;align=center;verticalAlign=middle;whiteSpace=wrap;rounded=0;" parent="1" vertex="1">
          <mxGeometry x="380" y="620" width="40" height="20" as="geometry" />
        </mxCell>
        <mxCell id="-yk-q24he1_SxwczFhWE-34" value="Fehler&lt;br&gt;melden" style="whiteSpace=wrap;html=1;" parent="1" vertex="1">
          <mxGeometry x="490" y="580" width="120" height="60" as="geometry" />
        </mxCell>
        <mxCell id="-yk-q24he1_SxwczFhWE-37" value="" style="endArrow=classic;html=1;entryX=0.5;entryY=1;entryDx=0;entryDy=0;exitX=0.5;exitY=1;exitDx=0;exitDy=0;" parent="1" source="-yk-q24he1_SxwczFhWE-38" target="-yk-q24he1_SxwczFhWE-39" edge="1">
          <mxGeometry width="50" height="50" relative="1" as="geometry">
            <mxPoint x="263.24" y="394.81000000000006" as="sourcePoint" />
            <mxPoint x="260.99" y="494.99" as="targetPoint" />
            <Array as="points">
              <mxPoint x="257.5" y="420" />
              <mxPoint x="257.5" y="460" />
              <mxPoint x="257.5" y="500" />
            </Array>
          </mxGeometry>
        </mxCell>
        <mxCell id="-yk-q24he1_SxwczFhWE-38" value="" style="rounded=0;whiteSpace=wrap;html=1;direction=south;" parent="1" vertex="1">
          <mxGeometry x="277.5" y="415" width="10" height="10" as="geometry" />
        </mxCell>
        <mxCell id="-yk-q24he1_SxwczFhWE-39" value="" style="rounded=0;whiteSpace=wrap;html=1;direction=south;" parent="1" vertex="1">
          <mxGeometry x="277.5" y="495" width="10" height="10" as="geometry" />
        </mxCell>
        <mxCell id="-yk-q24he1_SxwczFhWE-40" value="" style="endArrow=classic;html=1;strokeWidth=1;entryX=0.5;entryY=0;entryDx=0;entryDy=0;" parent="1" target="-yk-q24he1_SxwczFhWE-23" edge="1">
          <mxGeometry width="50" height="50" relative="1" as="geometry">
            <mxPoint x="390" y="350" as="sourcePoint" />
            <mxPoint x="475" y="370" as="targetPoint" />
          </mxGeometry>
        </mxCell>
        <mxCell id="-yk-q24he1_SxwczFhWE-41" value="" style="endArrow=classic;html=1;strokeWidth=1;entryX=0.449;entryY=-0.02;entryDx=0;entryDy=0;entryPerimeter=0;" parent="1" target="-yk-q24he1_SxwczFhWE-24" edge="1">
          <mxGeometry width="50" height="50" relative="1" as="geometry">
            <mxPoint x="450" y="350" as="sourcePoint" />
            <mxPoint x="500" y="350" as="targetPoint" />
          </mxGeometry>
        </mxCell>
        <mxCell id="-yk-q24he1_SxwczFhWE-42" value="" style="endArrow=classic;html=1;strokeWidth=1;exitX=0.521;exitY=1;exitDx=0;exitDy=0;exitPerimeter=0;" parent="1" source="-yk-q24he1_SxwczFhWE-25" edge="1">
          <mxGeometry width="50" height="50" relative="1" as="geometry">
            <mxPoint x="280" y="560" as="sourcePoint" />
            <mxPoint x="400" y="560" as="targetPoint" />
          </mxGeometry>
        </mxCell>
        <mxCell id="-yk-q24he1_SxwczFhWE-43" value="" style="endArrow=classic;html=1;strokeWidth=1;exitX=0.518;exitY=0.998;exitDx=0;exitDy=0;exitPerimeter=0;" parent="1" source="-yk-q24he1_SxwczFhWE-24" edge="1">
          <mxGeometry width="50" height="50" relative="1" as="geometry">
            <mxPoint x="485" y="505" as="sourcePoint" />
            <mxPoint x="440" y="560" as="targetPoint" />
          </mxGeometry>
        </mxCell>
        <mxCell id="-yk-q24he1_SxwczFhWE-44" value="Zahlungs-&lt;br&gt;methode" style="text;html=1;strokeColor=none;fillColor=none;align=center;verticalAlign=middle;whiteSpace=wrap;rounded=0;" parent="1" vertex="1">
          <mxGeometry x="210" y="450" width="40" height="20" as="geometry" />
        </mxCell>
        <mxCell id="-yk-q24he1_SxwczFhWE-45" value="" style="endArrow=classic;html=1;strokeWidth=1;entryX=0.5;entryY=0;entryDx=0;entryDy=0;" parent="1" target="-yk-q24he1_SxwczFhWE-28" edge="1">
          <mxGeometry width="50" height="50" relative="1" as="geometry">
            <mxPoint x="415" y="560" as="sourcePoint" />
            <mxPoint x="520" y="550" as="targetPoint" />
          </mxGeometry>
        </mxCell>
        <mxCell id="-yk-q24he1_SxwczFhWE-46" value="" style="endArrow=classic;html=1;strokeWidth=1;exitX=1;exitY=0.5;exitDx=0;exitDy=0;entryX=0.75;entryY=0;entryDx=0;entryDy=0;" parent="1" source="-yk-q24he1_SxwczFhWE-5" target="-yk-q24he1_SxwczFhWE-47" edge="1">
          <mxGeometry width="50" height="50" relative="1" as="geometry">
            <mxPoint x="490" y="110" as="sourcePoint" />
            <mxPoint x="710" y="680" as="targetPoint" />
            <Array as="points">
              <mxPoint x="660" y="100" />
              <mxPoint x="660" y="530" />
            </Array>
          </mxGeometry>
        </mxCell>
        <mxCell id="-yk-q24he1_SxwczFhWE-47" value="End" style="text;html=1;strokeColor=none;fillColor=none;align=center;verticalAlign=middle;whiteSpace=wrap;rounded=0;" parent="1" vertex="1">
          <mxGeometry x="630" y="680" width="40" height="20" as="geometry" />
        </mxCell>
        <mxCell id="-yk-q24he1_SxwczFhWE-48" value="" style="endArrow=classic;html=1;strokeWidth=1;exitX=1;exitY=0.5;exitDx=0;exitDy=0;" parent="1" source="-yk-q24he1_SxwczFhWE-29" edge="1">
          <mxGeometry width="50" height="50" relative="1" as="geometry">
            <mxPoint x="560" y="700" as="sourcePoint" />
            <mxPoint x="630" y="690" as="targetPoint" />
          </mxGeometry>
        </mxCell>
        <mxCell id="-yk-q24he1_SxwczFhWE-49" value="" style="endArrow=classic;html=1;strokeWidth=1;exitX=1;exitY=0.5;exitDx=0;exitDy=0;entryX=0.25;entryY=0;entryDx=0;entryDy=0;" parent="1" source="-yk-q24he1_SxwczFhWE-34" target="-yk-q24he1_SxwczFhWE-47" edge="1">
          <mxGeometry width="50" height="50" relative="1" as="geometry">
            <mxPoint x="630" y="610" as="sourcePoint" />
            <mxPoint x="660" y="610" as="targetPoint" />
            <Array as="points">
              <mxPoint x="640" y="610" />
            </Array>
          </mxGeometry>
        </mxCell>
        <mxCell id="lJLGHk57sMbco1RxfeVv-1" value="!gesteckt" style="text;html=1;strokeColor=none;fillColor=none;align=center;verticalAlign=middle;whiteSpace=wrap;rounded=0;" vertex="1" parent="1">
          <mxGeometry x="490" y="80" width="40" height="20" as="geometry" />
        </mxCell>
      </root>
    </mxGraphModel>
  </diagram>
</mxfile>
